<?xml version="1.0" encoding="UTF-8"?>
<svg width="16px" height="16px" viewBox="0 0 16 16" version="1.1" xmlns="http://www.w3.org/2000/svg" xmlns:xlink="http://www.w3.org/1999/xlink">
    <!-- Generator: Sketch 64 (93537) - https://sketch.com -->
    <title>Path</title>
    <desc>Created with Sketch.</desc>
    <g id="Desktop" stroke="none" stroke-width="1" fill="none" fill-rule="evenodd">
        <g id="secondary-listing-detail" transform="translate(-1009.000000, -1923.000000)" fill="#DA5432" fill-rule="nonzero">
            <g id="pagination" transform="translate(171.000000, 1919.000000)">
                <g id="Group-Copy-2" transform="translate(725.000000, 0.000000)">
                    <g id="redo-copy" transform="translate(113.000000, 4.000000)">
                        <path d="M15.6129035,0 L15.290323,0 C15.076549,0 14.9032265,0.173330143 14.9032265,0.387104234 L14.9032265,3.95565092 C13.509808,1.58216818 10.9277773,-0.00918589903 7.97442431,0 C3.57484637,0.01381409 -0.00686109432,3.61319947 0,8.01277801 C0.00691309073,12.4251953 3.58600766,16 8,16 C10.0621327,16 11.9420025,15.2197746 13.3605823,13.9384526 C13.5255177,13.7894849 13.5332918,13.5332592 13.3761307,13.376098 L13.1480985,13.1480659 C13.0028406,13.0028079 12.7690988,12.9960014 12.6164214,13.1334207 C11.3941319,14.2334847 9.77629416,14.9032263 8,14.9032263 C4.20181373,14.9032263 1.09678339,11.8280343 1.09678339,8 C1.09678339,4.20181209 4.17197504,1.09678131 8,1.09678131 C10.672971,1.09678131 12.991518,2.61539349 14.138356,4.83871501 L10.4516163,4.83871501 C10.2378423,4.83871501 10.0645198,5.01203751 10.0645198,5.2258116 L10.0645198,5.54839209 C10.0645198,5.76216618 10.2378423,5.93548868 10.4516163,5.93548868 L15.6129035,5.93548868 C15.8266775,5.93548868 16,5.76216618 16,5.54839209 L16,0.387104234 C16,0.173330143 15.8266775,0 15.6129035,0 Z" id="Path"></path>
                    </g>
                </g>
            </g>
        </g>
    </g>
</svg>