<?xml version="1.0" encoding="UTF-8"?>
<svg width="18px" height="22px" viewBox="0 0 18 22" version="1.1" xmlns="http://www.w3.org/2000/svg" xmlns:xlink="http://www.w3.org/1999/xlink">
    <title>calendar (1)</title>
    <g id="Desktop" stroke="none" stroke-width="1" fill="none" fill-rule="evenodd">
        <g id="Listing" transform="translate(-532.000000, -505.000000)" fill="#A06E37" fill-rule="nonzero">
            <g id="hero" transform="translate(0.000000, 131.000000)">
                <g id="Group-12" transform="translate(240.000000, 104.000000)">
                    <g id="Group-10" transform="translate(43.000000, 35.000000)">
                        <g id="contact-links-with-icons" transform="translate(248.000000, 124.000000)">
                            <g id="calendar-(1)" transform="translate(1.000000, 111.148148)">
                                <path d="M7,12.2159158 C7,12.0147909 6.83689308,11.8518519 6.63564018,11.8518519 L5.36416252,11.8518519 C5.16313981,11.8518519 5,12.0147909 5,12.2159158 L5,13.487459 C5,13.688847 5.16313981,13.8518519 5.36416252,13.8518519 L6.63564018,13.8518519 C6.83689308,13.8518519 7,13.688847 7,13.487459 L7,12.2159158 L7,12.2159158 Z" id="Path"></path>
                                <path d="M10,12.2159158 C10,12.0147909 9.8368441,11.8518519 9.63596599,11.8518519 L8.36419844,11.8518519 C8.1631559,11.8518519 8,12.0147909 8,12.2159158 L8,13.487459 C8,13.688847 8.1631559,13.8518519 8.36419844,13.8518519 L9.63596599,13.8518519 C9.8368441,13.8518519 10,13.688847 10,13.487459 L10,12.2159158 Z" id="Path"></path>
                                <path d="M14,12.2159158 C14,12.0147909 13.8368602,11.8518519 13.6358375,11.8518519 L12.3643598,11.8518519 C12.1631069,11.8518519 12,12.0147909 12,12.2159158 L12,13.487459 C12,13.688847 12.1631069,13.8518519 12.3643598,13.8518519 L13.6358375,13.8518519 C13.8368602,13.8518519 14,13.688847 14,13.487459 L14,12.2159158 Z" id="Path"></path>
                                <path d="M7,15.2161491 C7,15.0146754 6.83689308,14.8518519 6.63564018,14.8518519 L5.36416252,14.8518519 C5.16313981,14.8518519 5,15.0146754 5,15.2161491 L5,16.4875875 C5,16.6888638 5.16313981,16.8518519 5.36416252,16.8518519 L6.63564018,16.8518519 C6.83689308,16.8518519 7,16.6888309 7,16.4875875 L7,15.2161491 L7,15.2161491 Z" id="Path"></path>
                                <path d="M10,15.2161491 C10,15.0146754 9.8368441,14.8518519 9.63596599,14.8518519 L8.36419844,14.8518519 C8.1631559,14.8518519 8,15.0146754 8,15.2161491 L8,16.4875875 C8,16.6888638 8.1631559,16.8518519 8.36419844,16.8518519 L9.63596599,16.8518519 C9.8368441,16.8518519 10,16.6888309 10,16.4875875 L10,15.2161491 Z" id="Path"></path>
                                <path d="M14,15.2161491 C14,15.0146754 13.8368602,14.8518519 13.6360019,14.8518519 L12.3643598,14.8518519 C12.1631069,14.8518519 12,15.0146754 12,15.2161491 L12,16.4875875 C12,16.6888638 12.1631069,16.8518519 12.3643598,16.8518519 L13.6360019,16.8518519 C13.8368602,16.8518519 14,16.6888309 14,16.4875875 L14,15.2161491 L14,15.2161491 Z" id="Path"></path>
                                <path d="M16.3978254,3.86015579 L16.3978254,6.1731156 C16.3978254,7.21854993 15.5813337,8.06100784 14.575011,8.06100784 L13.4251273,8.06100784 C12.4187292,8.06100784 11.5914147,7.21854993 11.5914147,6.1731156 L11.5914147,3.85185185 L6.40858526,3.85185185 L6.40858526,6.1731156 C6.40858526,7.21854993 5.58130853,8.06100784 4.57506128,8.06100784 L3.42495129,8.06100784 C2.41866633,8.06100784 1.60221231,7.21854993 1.60221231,6.1731156 L1.60221231,3.86015579 C0.722707561,3.88769196 0,4.64362441 0,5.57276446 L0,19.1278057 C0,20.0744153 0.73865879,20.8518519 1.64999057,20.8518519 L16.3500094,20.8518519 C17.2599837,20.8518519 18,20.0728094 18,19.1278057 L18,5.57276446 C18,4.64362441 17.2773301,3.88769196 16.3978254,3.86015579 Z M15.8637421,18.2837027 C15.8637421,18.6927891 15.5444158,19.0246724 15.1504242,19.0246724 L2.81816353,19.0246724 C2.42417196,19.0246724 2.1048457,18.6927891 2.1048457,18.2837027 L2.1048457,11.2820345 C2.1048457,10.8727914 2.42413425,10.5409081 2.81816353,10.5409081 L15.1503865,10.5409081 C15.5443781,10.5409081 15.8637421,10.8727914 15.8637421,11.2820345 L15.8637421,18.2837027 L15.8637421,18.2837027 Z" id="Shape"></path>
                                <path d="M2.78546385,5.85185185 L4.21453615,5.85185185 C4.64829906,5.85185185 5,5.56665427 5,5.21438985 L5,1.48954472 C5,1.13724182 4.64829906,0.851851852 4.21453615,0.851851852 L2.78546385,0.851851852 C2.35165356,0.851851852 2,1.13724182 2,1.48954472 L2,5.21438985 C2,5.56665427 2.35165356,5.85185185 2.78546385,5.85185185 Z" id="Path"></path>
                                <path d="M13.7855033,5.85185185 L15.2147336,5.85185185 C15.6482602,5.85185185 16,5.56665427 16,5.21438985 L16,1.48954472 C16.0000474,1.13724182 15.6483076,0.851851852 15.2147336,0.851851852 L13.7855033,0.851851852 C13.3517398,0.851851852 13,1.13724182 13,1.48954472 L13,5.21438985 C13,5.56665427 13.3517398,5.85185185 13.7855033,5.85185185 Z" id="Path"></path>
                            </g>
                        </g>
                    </g>
                </g>
            </g>
        </g>
    </g>
</svg>