<?xml version="1.0" encoding="UTF-8"?>
<svg width="29px" height="27px" viewBox="0 0 29 27" version="1.1" xmlns="http://www.w3.org/2000/svg" xmlns:xlink="http://www.w3.org/1999/xlink">
    <title>calendar</title>
    <g id="Page-1" stroke="none" stroke-width="1" fill="none" fill-rule="evenodd">
        <g id="Schedule-Service-Popout" transform="translate(-1502.000000, -571.000000)" fill="#FFFFFF" fill-rule="nonzero">
            <g id="Group" transform="translate(960.000000, 0.000000)">
                <g id="calendar" transform="translate(542.500000, 571.000000)">
                    <path d="M24.4061813,27 L3.59381868,27 C1.88716128,27 0.5,25.5988231 0.5,23.874922 L0.5,5.12486993 C0.5,3.40096878 1.88716128,2 3.59381868,2 L24.4061813,2 C26.1128387,2 27.5,3.40096878 27.5,5.12486993 L27.5,23.874922 C27.5,25.5988231 26.1128387,27 24.4061813,27 Z M3.59381868,3.70455018 C2.81866455,3.70455018 2.1875,4.34188379 2.1875,5.12486993 L2.1875,23.874922 C2.1875,24.6579081 2.81866455,25.2954498 3.59381868,25.2954498 L24.4061813,25.2954498 C25.1813354,25.2954498 25.8125,24.6579081 25.8125,23.874922 L25.8125,5.12486993 C25.8125,4.34188379 25.1813354,3.70455018 24.4061813,3.70455018 L3.59381868,3.70455018 Z" id="Shape"></path>
                    <path d="M26.65625,11 L1.34375,11 C0.877998365,11 0.5,10.5520019 0.5,10 C0.5,9.44799806 0.877998365,9 1.34375,9 L26.65625,9 C27.1220016,9 27.5,9.44799806 27.5,10 C27.5,10.5520019 27.1220016,11 26.65625,11 Z" id="Path"></path>
                    <path d="M6.5,7 C5.94799806,7 5.5,6.6080017 5.5,6.125 L5.5,0.875 C5.5,0.391998305 5.94799806,0 6.5,0 C7.05200194,0 7.5,0.391998305 7.5,0.875 L7.5,6.125 C7.5,6.6080017 7.05200194,7 6.5,7 Z" id="Path"></path>
                    <path d="M20.5,7 C19.9479981,7 19.5,6.6080017 19.5,6.125 L19.5,0.875 C19.5,0.391998305 19.9479981,0 20.5,0 C21.0520019,0 21.5,0.391998305 21.5,0.875 L21.5,6.125 C21.5,6.6080017 21.0520019,7 20.5,7 Z" id="Path"></path>
                </g>
            </g>
        </g>
    </g>
</svg>