<?xml version="1.0" encoding="UTF-8"?>
<svg width="23px" height="17px" viewBox="0 0 23 17" version="1.1" xmlns="http://www.w3.org/2000/svg" xmlns:xlink="http://www.w3.org/1999/xlink">
    <!-- Generator: Sketch 64 (93537) - https://sketch.com -->
    <title>envelope</title>
    <desc>Created with Sketch.</desc>
    <g id="Desktop" stroke="none" stroke-width="1" fill="none" fill-rule="evenodd">
        <g id="secondary-listing-detail" transform="translate(-1237.000000, -402.000000)" fill="#FFFFFF" fill-rule="nonzero">
            <g id="agent-info-box" transform="translate(1214.000000, 259.000000)">
                <g id="Group-9" transform="translate(23.000000, 135.000000)">
                    <g id="envelope" transform="translate(0.000000, 8.000000)">
                        <path d="M22.5642578,5.61354167 C22.7394531,5.47630208 23,5.6046875 23,5.82161458 L23,14.875 C23,16.0481771 22.0341797,17 20.84375,17 L2.15625,17 C0.965820312,17 0,16.0481771 0,14.875 L0,5.82604167 C0,5.6046875 0.256054687,5.48072917 0.435742187,5.61796875 C1.44199219,6.38828125 2.77617187,7.36666667 7.35820312,10.6471354 C8.30605469,11.3289062 9.90527344,12.7632812 11.5,12.7544271 C13.1037109,12.7677083 14.734375,11.3023438 15.6462891,10.6471354 C20.2283203,7.36666667 21.5580078,6.38385417 22.5642578,5.61354167 Z M11.5,11.3333333 C12.5421875,11.3510417 14.0425781,10.040625 14.7972656,9.50052083 C20.7583984,5.23723958 21.2121094,4.86536458 22.5867187,3.80286458 C22.8472656,3.60364583 23,3.29375 23,2.96614583 L23,2.125 C23,0.951822917 22.0341797,0 20.84375,0 L2.15625,0 C0.965820313,0 0,0.951822917 0,2.125 L0,2.96614583 C0,3.29375 0.152734375,3.59921875 0.41328125,3.80286458 C1.78789063,4.8609375 2.24160156,5.23723958 8.20273438,9.50052083 C8.95742188,10.040625 10.4578125,11.3510417 11.5,11.3333333 Z" id="Shape"></path>
                    </g>
                </g>
            </g>
        </g>
    </g>
</svg>