<?xml version="1.0" encoding="UTF-8"?>
<svg width="20px" height="18px" viewBox="0 0 20 18" version="1.1" xmlns="http://www.w3.org/2000/svg" xmlns:xlink="http://www.w3.org/1999/xlink">
    <!-- Generator: Sketch 64 (93537) - https://sketch.com -->
    <title>external-link</title>
    <desc>Created with Sketch.</desc>
    <g id="Desktop" stroke="none" stroke-width="1" fill="none" fill-rule="evenodd">
        <g id="secondary" transform="translate(-215.000000, -487.000000)" fill="#DA5432" fill-rule="nonzero">
            <g id="hero" transform="translate(0.000000, 93.000000)">
                <g id="Group-12" transform="translate(170.000000, 59.000000)">
                    <g id="Group-10" transform="translate(45.000000, 49.000000)">
                        <g id="contact-links-with-icons" transform="translate(0.000000, 177.000000)">
                            <g id="external-link" transform="translate(0.000000, 109.000000)">
                                <path d="M15.5555557,9.69430568 L15.5555557,16.1111113 C15.5555557,17.0315974 14.8093752,17.777778 13.8888891,17.777778 L1.66666669,17.777778 C0.746180565,17.777778 0,17.0315974 0,16.1111113 L0,3.88888894 C0,2.96840281 0.746180565,2.22222225 1.66666669,2.22222225 L10.2777779,2.22222225 C10.4987827,2.22222225 10.710736,2.31001479 10.867014,2.46628475 L11.4225696,3.02184032 C11.9475696,3.54684032 11.575764,4.4444445 10.8333335,4.4444445 L2.22222225,4.4444445 L2.22222225,15.5555557 L13.3333335,15.5555557 L13.3333335,10.2498612 C13.3333335,10.0288543 13.421146,9.81687512 13.577396,9.6605904 L14.1329516,9.10503484 C14.6579168,8.58006955 15.5555557,8.95187511 15.5555557,9.69430568 Z M20.0000003,1.29628474 C20.0000003,0.580381952 19.4196183,0 18.7037155,0 L13.1944446,0 C12.6575002,0 12.2222224,0.435277783 12.2222224,0.972222234 L12.2222224,1.59322919 C12.2222224,2.14065975 12.6739932,2.58017364 13.2212502,2.56506948 L15.5546877,2.49888892 L6.91284731,11.079514 C6.58545147,11.4046182 6.58447925,11.9338543 6.91072925,12.2601043 L7.73986121,13.0892363 C8.06611121,13.4154863 8.59538205,13.4145488 8.9204515,13.0871529 L17.5010766,4.44531256 L17.4348961,6.77875008 C17.4198266,7.32597231 17.8593405,7.77777787 18.4067711,7.77777787 L19.027778,7.77777787 C19.5647225,7.77777787 20.0000003,7.34250009 20.0000003,6.80555564 L20.0000003,1.29628474 Z" id="Shape"></path>
                            </g>
                        </g>
                    </g>
                </g>
            </g>
        </g>
    </g>
</svg>