<?xml version="1.0" encoding="UTF-8"?>
<svg width="20px" height="16px" viewBox="0 0 20 16" version="1.1" xmlns="http://www.w3.org/2000/svg" xmlns:xlink="http://www.w3.org/1999/xlink">
    <!-- Generator: Sketch 64 (93537) - https://sketch.com -->
    <title>home-alt</title>
    <desc>Created with Sketch.</desc>
    <g id="Desktop" stroke="none" stroke-width="1" fill="none" fill-rule="evenodd">
        <g id="secondary" transform="translate(-215.000000, -387.000000)" fill="#DA5432" fill-rule="nonzero">
            <g id="hero" transform="translate(0.000000, 93.000000)">
                <g id="Group-12" transform="translate(170.000000, 59.000000)">
                    <g id="Group-10" transform="translate(45.000000, 49.000000)">
                        <g id="contact-links-with-icons" transform="translate(0.000000, 177.000000)">
                            <g id="home-alt" transform="translate(0.000000, 9.000000)">
                                <path d="M9.73598616,4.02283737 L3.35640138,9.27716263 L3.35640138,14.9480969 C3.35640138,15.2538601 3.60427142,15.5017301 3.9100346,15.5017301 L7.78754325,15.4916955 C8.09222485,15.4901721 8.33841211,15.2427477 8.3384083,14.9380623 L8.3384083,11.6262976 C8.3384083,11.3205344 8.58627834,11.0726644 8.89204152,11.0726644 L11.1065744,11.0726644 C11.4123376,11.0726644 11.6602076,11.3205344 11.6602076,11.6262976 L11.6602076,14.9356401 C11.6597478,15.0827723 11.7178738,15.224036 11.8217501,15.3282368 C11.9256263,15.4324377 12.0667079,15.4910042 12.2138408,15.4910035 L16.0899654,15.5017301 C16.3957286,15.5017301 16.6435986,15.2538601 16.6435986,14.9480969 L16.6435986,9.2733564 L10.2653979,4.02283737 C10.1108983,3.89830271 9.89048583,3.89830271 9.73598616,4.02283737 Z M19.8131488,7.59411765 L11.0543253,0.380622837 C10.4412016,-0.123915405 9.55672231,-0.123915405 8.94359862,0.380622837 L0.184775087,7.59411765 C0.099859055,7.66430331 0.0463155627,7.76535776 0.0359319862,7.87503428 C0.0255484097,7.98471081 0.0591759933,8.09401815 0.129411765,8.17889273 L1.01176471,9.25155709 C1.08181047,9.3367293 1.18285994,9.39053966 1.2926268,9.40112038 C1.40239365,9.4117011 1.51186094,9.37818301 1.59688581,9.30795848 L9.73598616,2.60415225 C9.89048583,2.47961759 10.1108983,2.47961759 10.2653979,2.60415225 L18.4048443,9.30795848 C18.4897189,9.37819425 18.5990262,9.41182183 18.7087027,9.40143826 C18.8183793,9.39105468 18.9194337,9.33751119 18.9896194,9.25259516 L19.8719723,8.1799308 C19.9421367,8.09456182 19.9753784,7.98474618 19.9643379,7.87479613 C19.9532975,7.76484608 19.8988857,7.66383204 19.8131488,7.59411765 Z" id="Shape"></path>
                            </g>
                        </g>
                    </g>
                </g>
            </g>
        </g>
    </g>
</svg>