<?xml version="1.0" encoding="UTF-8"?>
<svg width="36px" height="39px" viewBox="0 0 36 39" version="1.1" xmlns="http://www.w3.org/2000/svg" xmlns:xlink="http://www.w3.org/1999/xlink">
    <title>↳Color Copy</title>
    <g id="Desktop" stroke="none" stroke-width="1" fill="none" fill-rule="evenodd">
        <g id="Homepage" transform="translate(-491.000000, -3623.000000)" fill="#F27400">
            <g id="Map-With-Locations" transform="translate(240.000000, 3463.000000)">
                <g id="Map" transform="translate(7.000000, 44.000000)">
                    <path d="M262,116 C271.925714,116 280,122.925792 280,131.437594 C280,140.7749 267.485714,151.399215 263.647429,154.434733 C262.69369,155.188422 261.308024,155.188422 260.354286,154.434733 C256.514286,151.40084 244,140.77815 244,131.437594 C244,122.925792 252.074286,116 262,116 Z M262.278562,125.750059 C261.041841,125.750059 259.904516,126.043134 258.866554,126.629292 C257.828591,127.215449 257.000442,128.010937 256.382082,129.01578 C255.763721,130.020622 255.454545,131.109184 255.454545,132.2815 C255.454545,134.081842 256.117065,135.610016 257.442123,136.866069 C258.767181,138.122121 260.379312,138.750138 262.278562,138.750138 C263.515283,138.750138 264.66365,138.457064 265.723697,137.870906 C266.783743,137.284748 267.622934,136.499727 268.241295,135.515819 C268.859656,134.531911 269.168831,133.453816 269.168831,132.2815 C269.168831,131.109184 268.859656,130.020622 268.241295,129.01578 C267.622934,128.010937 266.783743,127.215449 265.723697,126.629292 C264.66365,126.043134 263.515283,125.750059 262.278562,125.750059 Z" id="↳Color-Copy"></path>
                </g>
            </g>
        </g>
    </g>
</svg>