<?xml version="1.0" encoding="UTF-8"?>
<svg width="24px" height="23px" viewBox="0 0 24 23" version="1.1" xmlns="http://www.w3.org/2000/svg" xmlns:xlink="http://www.w3.org/1999/xlink">
    <title>Combined Shape</title>
    <g id="Symbols" stroke="none" stroke-width="1" fill="none" fill-rule="evenodd">
        <g id="Footer-Area" transform="translate(-241.000000, -218.000000)" fill="#809D4B">
            <g id="Contact-Area" transform="translate(241.000000, 70.000000)">
                <g id="Icon-/-Contact-/-Phone2" transform="translate(0.000000, 148.000000)">
                    <path d="M2.2909293,2.76866452 C3.31525536,1.74377849 4.97568801,1.74377849 6.00001407,2.76866452 L6.00001407,2.76866452 L8.22756342,4.9960045 C9.24754517,6.02286921 9.24754517,7.68137309 8.22756342,8.7082378 L8.22756342,8.7082378 L7.82255445,9.11359057 C9.66688051,11.3125037 11.6992731,13.3462702 13.8966398,15.1917819 L13.8966398,15.1917819 L14.3005995,14.7874793 C14.7925489,14.2949824 15.4598533,14.0182897 16.1556665,14.0182897 C16.8514798,14.0182897 17.5187842,14.2949824 18.0107336,14.7874793 L18.0107336,14.7874793 L20.2319874,17.0169195 C21.2560042,18.0421151 21.2560042,19.7039572 20.2319874,20.7291528 L20.2319874,20.7291528 L19.010665,21.9494117 C17.7630138,23.1512931 15.8559764,23.3434601 14.3939824,22.4146223 C8.92410905,18.7813684 4.23601242,14.0892922 0.60584015,8.61477563 C-0.351666293,7.15865379 -0.157654346,5.23003707 1.07065615,3.99417407 L1.07065615,3.99417407 Z M15.0177909,1.07903804 C17.2694595,-0.555067078 20.3752514,-0.310001359 22.3426571,1.65701416 C24.3100629,3.62402969 24.5551772,6.72920572 22.9207479,8.98042774 C21.2863187,11.2316498 18.257427,11.960779 15.7772476,10.7000453 C13.8859584,10.7101581 12.5615173,10.6852409 11.8039243,10.6252937 L11.5723877,10.6040139 C11.2565743,10.5701481 11.082473,10.5275248 11.0500837,10.476144 C10.9457182,10.3105836 11.6949677,9.55890945 13.2978322,8.22112166 C12.0368484,5.74143408 12.7661223,2.71314315 15.0177909,1.07903804 Z" id="Combined-Shape" transform="translate(12.000000, 11.500000) scale(-1, 1) translate(-12.000000, -11.500000) "></path>
                </g>
            </g>
        </g>
    </g>
</svg>