<?xml version="1.0" encoding="UTF-8"?>
<svg width="20px" height="18px" viewBox="0 0 20 18" version="1.1" xmlns="http://www.w3.org/2000/svg" xmlns:xlink="http://www.w3.org/1999/xlink">
    <!-- Generator: Sketch 64 (93537) - https://sketch.com -->
    <title>phone-office</title>
    <desc>Created with Sketch.</desc>
    <g id="Desktop" stroke="none" stroke-width="1" fill="none" fill-rule="evenodd">
        <g id="secondary" transform="translate(-215.000000, -435.000000)" fill="#DA5432" fill-rule="nonzero">
            <g id="hero" transform="translate(0.000000, 93.000000)">
                <g id="Group-12" transform="translate(170.000000, 59.000000)">
                    <g id="Group-10" transform="translate(45.000000, 49.000000)">
                        <g id="contact-links-with-icons" transform="translate(0.000000, 177.000000)">
                            <g id="phone-office" transform="translate(0.000000, 57.000000)">
                                <path d="M4.44444444,14.4444444 L6.66666667,14.4444444 C7.28020833,14.4444444 7.77777778,13.946875 7.77777778,13.3333333 L7.77777778,1.11111111 C7.77777778,0.497569444 7.28020833,0 6.66666667,0 L4.44444444,0 C3.83090278,0 3.33333333,0.497569444 3.33333333,1.11111111 L3.33333333,13.3333333 C3.33333333,13.946875 3.83090278,14.4444444 4.44444444,14.4444444 Z M18.3333333,1.11111111 L8.88888889,1.11111111 L8.88888889,13.3333333 C8.88888889,14.5586806 7.89201389,15.5555556 6.66666667,15.5555556 L4.44444444,15.5555556 C3.21909722,15.5555556 2.22222222,14.5586806 2.22222222,13.3333333 L2.22222222,1.11111111 L1.66666667,1.11111111 C0.746180556,1.11111111 0,1.85729167 0,2.77777778 L0,16.1111111 C0,17.0315972 0.746180556,17.7777778 1.66666667,17.7777778 L18.3333333,17.7777778 C19.2538194,17.7777778 20,17.0315972 20,16.1111111 L20,2.77777778 C20,1.85729167 19.2538194,1.11111111 18.3333333,1.11111111 Z M13.3333333,15 C13.3333333,15.3069444 13.0847222,15.5555556 12.7777778,15.5555556 L11.6666667,15.5555556 C11.3597222,15.5555556 11.1111111,15.3069444 11.1111111,15 L11.1111111,13.8888889 C11.1111111,13.5819444 11.3597222,13.3333333 11.6666667,13.3333333 L12.7777778,13.3333333 C13.0847222,13.3333333 13.3333333,13.5819444 13.3333333,13.8888889 L13.3333333,15 Z M13.3333333,10.5555556 C13.3333333,10.8625 13.0847222,11.1111111 12.7777778,11.1111111 L11.6666667,11.1111111 C11.3597222,11.1111111 11.1111111,10.8625 11.1111111,10.5555556 L11.1111111,9.44444444 C11.1111111,9.1375 11.3597222,8.88888889 11.6666667,8.88888889 L12.7777778,8.88888889 C13.0847222,8.88888889 13.3333333,9.1375 13.3333333,9.44444444 L13.3333333,10.5555556 Z M17.7777778,15 C17.7777778,15.3069444 17.5291667,15.5555556 17.2222222,15.5555556 L16.1111111,15.5555556 C15.8041667,15.5555556 15.5555556,15.3069444 15.5555556,15 L15.5555556,13.8888889 C15.5555556,13.5819444 15.8041667,13.3333333 16.1111111,13.3333333 L17.2222222,13.3333333 C17.5291667,13.3333333 17.7777778,13.5819444 17.7777778,13.8888889 L17.7777778,15 Z M17.7777778,10.5555556 C17.7777778,10.8625 17.5291667,11.1111111 17.2222222,11.1111111 L16.1111111,11.1111111 C15.8041667,11.1111111 15.5555556,10.8625 15.5555556,10.5555556 L15.5555556,9.44444444 C15.5555556,9.1375 15.8041667,8.88888889 16.1111111,8.88888889 L17.2222222,8.88888889 C17.5291667,8.88888889 17.7777778,9.1375 17.7777778,9.44444444 L17.7777778,10.5555556 Z M17.7777778,6.66666667 L11.1111111,6.66666667 L11.1111111,3.33333333 L17.7777778,3.33333333 L17.7777778,6.66666667 Z" id="Shape"></path>
                            </g>
                        </g>
                    </g>
                </g>
            </g>
        </g>
    </g>
</svg>