<?xml version="1.0" encoding="UTF-8"?>
<svg width="28px" height="27px" viewBox="0 0 28 27" version="1.1" xmlns="http://www.w3.org/2000/svg" xmlns:xlink="http://www.w3.org/1999/xlink">
    <title>Shape</title>
    <g id="Symbols" stroke="none" stroke-width="1" fill="none" fill-rule="evenodd">
        <g id="Footer-Area" transform="translate(-361.000000, -164.000000)" fill="#FFFFFF">
            <g id="Quote-Box-">
                <g transform="translate(249.000000, 95.000000)">
                    <g id="Phone-Number" transform="translate(112.000000, 69.000000)">
                        <path d="M2.67275085,3.25017139 C3.86779792,2.04704432 5.80496934,2.04704432 7.00001641,3.25017139 L7.00001641,3.25017139 L9.59882399,5.86487484 C10.7888027,7.07032472 10.7888027,9.01726406 9.59882399,10.2227139 L9.59882399,10.2227139 L9.12631353,10.6985628 C11.2780273,13.2798956 13.649152,15.6673606 16.2127464,17.8338309 L16.2127464,17.8338309 L16.6840328,17.3592148 C17.2579737,16.7810664 18.0364955,16.4562531 18.8482776,16.4562531 C19.6600597,16.4562531 20.4385815,16.7810664 21.0125225,17.3592148 L21.0125225,17.3592148 L23.6039853,19.9763838 C24.7986716,21.1798743 24.7986716,23.1307324 23.6039853,24.3342229 L23.6039853,24.3342229 L22.1791092,25.7667007 C20.7235161,27.177605 18.4986392,27.4031923 16.7929795,26.3128174 C10.4114606,22.0476934 4.94201449,16.5396039 0.706813509,10.1129975 C-0.410277341,8.40363706 -0.183930071,6.13960874 1.24909884,4.68881303 L1.24909884,4.68881303 Z M17.520756,1.26669683 C20.1477027,-0.651600483 23.7711267,-0.363914638 26.0664333,1.94519054 C28.36174,4.25429572 28.6477067,7.89950237 26.7408726,10.5422413 C24.8340384,13.1849802 21.3003315,14.0409145 18.4067888,12.5609227 C14.8518656,12.5800491 13.0135241,12.4924356 12.8917643,12.2980821 C12.7700046,12.1037285 13.644129,11.2213285 15.5141376,9.65088195 C14.0429898,6.73994435 14.8938093,3.18499413 17.520756,1.26669683 Z" id="Combined-Shape" transform="translate(14.000000, 13.500000) scale(-1, 1) translate(-14.000000, -13.500000) "></path>
                    </g>
                </g>
            </g>
        </g>
    </g>
</svg>