<?xml version="1.0" encoding="UTF-8"?>
<svg width="25px" height="25px" viewBox="0 0 25 25" version="1.1" xmlns="http://www.w3.org/2000/svg" xmlns:xlink="http://www.w3.org/1999/xlink">
    <title>Path</title>
    <g id="Page-1" stroke="none" stroke-width="1" fill="none" fill-rule="evenodd">
        <g id="Schedule-Service-Popout" transform="translate(-1695.000000, -53.000000)" fill="#FFFFFF">
            <g id="Group" transform="translate(960.000000, 0.000000)">
                <path d="M759.443756,53.3373169 L759.558731,53.4412695 C760.146365,54.0289036 760.140981,54.9870305 759.55532,55.5726912 L749.62738,65.5002688 L759.55532,75.4273088 C760.107993,75.9799816 760.147478,76.8496367 759.662683,77.443756 L759.558731,77.5587305 C758.971096,78.1463646 758.012969,78.1409807 757.427309,77.5553201 L747.49938,67.6282688 L737.572691,77.5553201 C736.983174,78.1448377 736.033,78.1504615 735.441269,77.5587305 C734.853635,76.9710964 734.859019,76.0129695 735.44468,75.4273088 L745.37138,65.5002688 L735.44468,55.5726912 C734.855162,54.9831736 734.849539,54.0330004 735.441269,53.4412695 C736.028904,52.8536354 736.987031,52.8590193 737.572691,53.4446799 L747.49938,63.3712688 L757.427309,53.4446799 C757.979982,52.8920071 758.849637,52.8525223 759.443756,53.3373169 Z" id="Icon"></path>
            </g>
        </g>
    </g>
</svg>