<?xml version="1.0" encoding="UTF-8"?>
<svg width="22px" height="22px" viewBox="0 0 22 22" version="1.1" xmlns="http://www.w3.org/2000/svg" xmlns:xlink="http://www.w3.org/1999/xlink">
    <title>Phone</title>
    <g id="Page-1" stroke="none" stroke-width="1" fill="none" fill-rule="evenodd">
        <g id="Homepage" transform="translate(-1420.000000, -7.000000)" fill="#FFFFFF">
            <g id="Header" transform="translate(-4.000000, 0.000000)">
                <g id="Top-Menu">
                    <g id="Phone" transform="translate(1424.000000, 7.000000)">
                        <path d="M17.5002839,19.7804518 C17.0523456,20.2364602 16.5790898,20.6587395 16.1564689,21.131679 C15.5394821,21.824124 14.7618861,22.043696 13.8828877,21.9930357 C12.598213,21.9255109 11.406568,21.4947329 10.2655579,20.937404 C7.72159228,19.7044282 5.54947998,17.9900807 3.73234272,15.8282233 C2.3884612,14.2321272 1.281274,12.4924164 0.546006548,10.5247676 C0.191031515,9.57052274 -0.0625410661,8.59934684 0.0135439981,7.56907841 C0.0642452242,6.93565952 0.300873096,6.39519518 0.765756161,5.947619 C1.27283487,5.46624721 1.74615707,4.9680108 2.24479665,4.47820669 C2.89560636,3.8363555 3.70695888,3.8448542 4.35776859,4.47820669 C4.76344485,4.87512264 5.15224285,5.27203858 5.54947998,5.66895453 C5.93821153,6.05737177 6.32700953,6.43742311 6.7073684,6.82590675 C7.3834955,7.50991947 7.3834955,8.30375136 6.7073684,8.98783048 C6.22560708,9.47763459 5.74384575,9.96743869 5.24520617,10.4403118 C5.11841988,10.5669956 5.10154162,10.668316 5.16912111,10.8287954 C5.49033962,11.6057627 5.96359537,12.2982741 6.48761879,12.9400589 C7.54410476,14.2405595 8.74425528,15.3975118 10.1810337,16.2927305 C10.4853075,16.4869391 10.8234043,16.6220552 11.1445563,16.7993992 C11.3051656,16.8922874 11.4234463,16.8584918 11.5502326,16.7233757 C12.0319939,16.2251393 12.5306335,15.7353352 13.0208339,15.2454647 C13.6716436,14.6036799 14.4829962,14.6036799 15.1253667,15.2454647 C15.919841,16.0308642 16.7058097,16.8162638 17.4918448,17.6100957 C18.1679719,18.3025408 18.1679719,19.1133037 17.5002839,19.7804518" id="Fill-1"></path>
                        <path d="M10,6.82460929 L10.2503186,5 C11.9773596,5.2472899 13.545918,6.04875316 14.7807182,7.31060867 C15.957137,8.51280357 16.7246889,10.021949 17,11.6845361 L15.222974,12 C15.0059787,10.7125373 14.4136367,9.54446296 13.5041982,8.61509806 C12.5447091,7.63458592 11.3349014,7.01217153 10,6.82460929" id="Fill-4"></path>
                        <path d="M20.2922536,11 C19.9074244,8.69801564 18.8490654,6.60985069 17.2375735,4.94919527 C15.5378955,3.20625687 13.3812133,2.1046474 11,1.75935621 L11.2405419,0 C13.9905104,0.394609269 16.4919945,1.66892896 18.4562307,3.69129339 C20.3243384,5.60687738 21.5510011,8.03212462 22,10.695818 L20.2922536,11 Z" id="Fill-6"></path>
                    </g>
                </g>
            </g>
        </g>
    </g>
</svg>