<?xml version="1.0" encoding="UTF-8"?>
<svg width="32px" height="32px" viewBox="0 0 32 32" version="1.1" xmlns="http://www.w3.org/2000/svg" xmlns:xlink="http://www.w3.org/1999/xlink">
    <!-- Generator: Sketch 62 (91390) - https://sketch.com -->
    <title>telephone</title>
    <desc>Created with Sketch.</desc>
    <g id="Desktop" stroke="none" stroke-width="1" fill="none" fill-rule="evenodd">
        <g id="Mobile" transform="translate(-323.000000, -19.000000)" fill="#BE287E" fill-rule="nonzero">
            <g id="Header">
                <g id="telephone" transform="translate(323.000000, 19.000000)">
                    <path d="M31.1774011,23.6020799 L27.1991629,19.6240145 C26.1023644,18.5273262 24.3176605,18.5273262 23.2209246,19.6240145 L21.4126572,21.4322033 C20.5817454,22.2630789 19.2296857,22.2628289 18.3990865,21.4325158 L10.5612401,13.5883227 C9.72839083,12.7555096 9.72826582,11.4075711 10.5612401,10.574633 C10.852503,10.2833828 11.6888525,9.44706967 12.3695075,8.76644418 C13.4614933,7.67456839 13.476744,5.89550461 12.368445,4.78737881 L8.39126924,0.822875947 C7.29447078,-0.273812344 5.50982941,-0.273812344 4.41596858,0.820000945 C3.59743241,1.63137653 3.33342074,1.89312672 2.96640452,2.25693948 C-0.988770255,6.21187983 -0.988770255,12.647072 2.96621701,16.6018873 L15.3850158,29.0266463 C19.349441,32.9909617 25.7659745,32.9912742 29.7307122,29.0266463 L31.1774011,27.5800827 C32.2741996,26.483332 32.2741996,24.6988307 31.1774011,23.6020799 Z M5.73915205,2.1488769 C6.1047307,1.78331414 6.69950699,1.78325164 7.06627319,2.1498769 L11.0434489,6.11437976 C11.4099026,6.48081753 11.4099026,7.07388046 11.0434489,7.44038072 L10.3803571,8.1033812 L5.0794979,2.80275238 L5.73915205,2.1488769 Z M16.7113244,27.7008328 L4.29246312,15.2759489 C1.2324529,12.2160717 1.06425797,7.4113807 3.77519026,4.15056585 L9.06067382,9.43581966 C7.67186245,11.0101333 7.72974001,13.4090725 9.23486902,14.9141361 L17.0724654,22.7579543 C17.0725279,22.7580168 17.0726529,22.7581418 17.0727154,22.7582043 C18.5762193,24.2617054 20.9751378,24.3233304 22.5514575,22.9327044 L27.837066,28.2180832 C24.5864849,30.9242102 19.7923981,30.7817726 16.7113244,27.7008328 Z M29.8514051,26.2540818 L29.1883133,26.9171448 L23.8840164,21.6130159 L24.5469832,20.9500155 C24.9126243,20.5844527 25.5074631,20.5843902 25.8731043,20.9500155 L29.8513426,24.9280808 C30.2169837,25.2937061 30.2169837,25.8885815 29.8514051,26.2540818 Z" id="Shape"></path>
                </g>
            </g>
        </g>
    </g>
</svg>