<?xml version="1.0" encoding="UTF-8"?>
<svg width="20px" height="20px" viewBox="0 0 20 20" version="1.1" xmlns="http://www.w3.org/2000/svg" xmlns:xlink="http://www.w3.org/1999/xlink">
    <title>Shape</title>
    <g id="Stone-Ridge" stroke="none" stroke-width="1" fill="none" fill-rule="evenodd">
        <g id="desktop" transform="translate(-240.000000, -3977.000000)" fill="#026631" fill-rule="nonzero">
            <g id="Group-4" transform="translate(0.000000, 3622.000000)">
                <g id="time" transform="translate(240.000000, 355.000000)">
                    <path d="M10,0 C4.47715468,0 0,4.47715468 0,10 C0,15.5228453 4.47715468,20 10,20 C15.5228453,20 20,15.5228453 20,10 C19.9941406,4.479624 15.5204179,0.00590123591 10,0 Z M10.7143007,10 C10.7143007,10.3945039 10.3945039,10.7143007 10,10.7143007 L4.28572026,10.7143007 C3.89121637,10.7143007 3.5714196,10.3945039 3.5714196,10 C3.5714196,9.6054961 3.89121637,9.28569934 4.28572026,9.28569934 L9.28574119,9.28569934 L9.28574119,4.28572026 C9.28574119,3.89121637 9.60553795,3.5714196 10.0000419,3.5714196 C10.3945458,3.5714196 10.7143007,3.89121637 10.7143007,4.28572026 L10.7143007,10 Z" id="Shape"></path>
                </g>
            </g>
        </g>
    </g>
</svg>