<?xml version="1.0" encoding="UTF-8"?>
<svg width="22px" height="24px" viewBox="0 0 22 24" version="1.1" xmlns="http://www.w3.org/2000/svg" xmlns:xlink="http://www.w3.org/1999/xlink">
    <title>Icon / Pin / Location</title>
    <defs>
        <path d="M11,0 C17.0657143,0 22,4.262 22,9.5 C22,15.246 14.352381,21.784 12.0067619,23.652 C11.4239217,24.1158057 10.5771259,24.1158057 9.99428571,23.652 C7.64761905,21.785 0,15.248 0,9.5 C0,4.262 4.93428571,0 11,0 Z M11.1702323,6 C10.4144583,6 9.71942653,6.18035246 9.08511617,6.5410628 C8.45080582,6.90177314 7.94471472,7.39130126 7.5668277,8.00966184 C7.18894068,8.62802242 7,9.297903 7,10.0193237 C7,11.1272197 7.40487288,12.067629 8.21463078,12.8405797 C9.02438868,13.6135304 10.0095794,14 11.1702323,14 C11.9260064,14 12.627786,13.8196475 13.2755924,13.4589372 C13.9233987,13.0982269 14.4362377,12.6151399 14.8141247,12.0096618 C15.1920117,11.4041838 15.3809524,10.7407443 15.3809524,10.0193237 C15.3809524,9.297903 15.1920117,8.62802242 14.8141247,8.00966184 C14.4362377,7.39130126 13.9233987,6.90177314 13.2755924,6.5410628 C12.627786,6.18035246 11.9260064,6 11.1702323,6 Z" id="path-1"></path>
    </defs>
    <g id="Symbols" stroke="none" stroke-width="1" fill="none" fill-rule="evenodd">
        <g id="Footer-Area" transform="translate(-242.000000, -138.000000)">
            <g id="Contact-Area" transform="translate(241.000000, 70.000000)">
                <g id="Icon-/-Pin-/-Location" transform="translate(1.000000, 68.000000)">
                    <mask id="mask-2" fill="white">
                        <use xlink:href="#path-1"></use>
                    </mask>
                    <use id="↳Color" fill="#809D4B" xlink:href="#path-1"></use>
                </g>
            </g>
        </g>
    </g>
</svg>